# xmcd CD database file
#
# Track frame offsets:
#	150
#	20130
#	40323
#	56479
#	78809
#	100797
#	118186
#	137033
#	160595
#	184299
#
# Disc length: 2770 seconds
#
# Revision: 0
# Processed by: cddbd v1.5PL3 Copyright (c) Steve Scherf et al.
# Submitted via: CDex 1.51
#
DISCID=7f0ad00a
DTITLE=Sampler - Fiesta en el Malecon
DYEAR=1900
DGENRE=Merengue
TTITLE0=Si Tu Eres Hombre... (The Power of Love) REBCCA
TTITLE1=Solo tu (Merengue Mix) Occidental FUN CLUB
TTITLE2=Puerto Plata en Carneval HUASCAR BANKS
TTITLE3=Ente tu Cuerpo y el Mio REBECCA
TTITLE4=Celebracion (Fiesta de Chocolate) CHOCOLATE FRIENDS
TTITLE5=Hasta la Vista (Merengue Mix) ALLEGRO SOUND MIX
TTITLE6=Amar Haciendo el Amor KATMAR
TTITLE7=El Tiburon (Sax on the Beach Mix) SANDY GABRIEL
TTITLE8=Macarena (Merngue Mix) LOS LOGOS
TTITLE9=Me la Pusieron Dificil EL ALÈMAN
EXTD=
EXTT0=
EXTT1=
EXTT2=
EXTT3=
EXTT4=
EXTT5=
EXTT6=
EXTT7=
EXTT8=
EXTT9=
PLAYORDER=
